<!DOCTYPE svg PUBLIC "-//W3C//DTD SVG 1.1//EN" "http://www.w3.org/Graphics/SVG/1.1/DTD/svg11.dtd">
<!-- Uploaded to: SVG Repo, www.svgrepo.com, Transformed by: SVG Repo Mixer Tools -->
<svg width="800px" height="800px" viewBox="-102.4 -102.4 1228.80 1228.80" class="icon" version="1.1" xmlns="http://www.w3.org/2000/svg" fill="#4c3924" transform="matrix(-1, 0, 0, 1, 0, 0)rotate(0)" stroke="#4c3924">
<g id="SVGRepo_bgCarrier" stroke-width="0" transform="translate(15.360000000000014,15.360000000000014), scale(0.97)">
<path transform="translate(-102.4, -102.4), scale(76.8)" fill="#efd8b9" d="M9.166.33a2.25 2.25 0 00-2.332 0l-5.25 3.182A2.25 2.25 0 00.5 5.436v5.128a2.25 2.25 0 001.084 1.924l5.25 3.182a2.25 2.25 0 002.332 0l5.25-3.182a2.25 2.25 0 001.084-1.924V5.436a2.25 2.25 0 00-1.084-1.924L9.166.33z" strokewidth="0"/>
</g>
<g id="SVGRepo_tracerCarrier" stroke-linecap="round" stroke-linejoin="round" stroke="#CCCCCC" stroke-width="6.144"/>
<g id="SVGRepo_iconCarrier">
<path d="M461.38 391.42l102.27 0 0 564.69-102.27 0 0-564.69Z" fill="#4c3924"/>
<path d="M439.554082 164.520349l56.400501-5.520179 27.711942 283.137084-56.400501 5.520179-27.711942-283.137084Z" fill="#4c3924"/>
<path d="M267.043388 417.709201l40.071742-40.071741 211.198653 211.198653-40.071741 40.071741-211.198654-211.198653Z" fill="#4c3924"/>
<path d="M538.332201 720.053612l-40.071741-40.071742 211.198653-211.198653 40.071741 40.071741-211.198653 211.198654Z" fill="#4c3924"/>
<path d="M613.190854 216.21899l50.12459 26.43888-128.541382 243.697319-50.12459-26.43888 128.541382-243.697319Z" fill="#4c3924"/>
<path d="M697.789262 264.46526l17.881051 29.293863-142.432022 86.940877-17.88105-29.293863 142.432021-86.940877Z" fill="#4c3924"/>
<path d="M499.257871 315.129966l-24.267905 24.267905-117.994908-117.994908 24.267905-24.267905 117.994908 117.994908Z" fill="#4c3924"/>
<path d="M520.08516 701.982468l-17.16 29.721992-144.513659-83.435 17.16-29.721992 144.513659 83.435Z" fill="#4c3924"/>
<path d="M652.57 157.98m-93.37 0a93.37 93.37 0 1 0 186.74 0 93.37 93.37 0 1 0-186.74 0Z" fill="#11420a"/>
<path d="M332.43 166.87m-93.37 0a93.37 93.37 0 1 0 186.74 0 93.37 93.37 0 1 0-186.74 0Z" fill="#11420a"/>
<path d="M274.63 386.97m-93.37 0a93.37 93.37 0 1 0 186.74 0 93.37 93.37 0 1 0-186.74 0Z" fill="#11420a"/>
<path d="M304.27 644.86m-93.37 0a93.37 93.37 0 1 0 186.74 0 93.37 93.37 0 1 0-186.74 0Z" fill="#11420a"/>
<path d="M746.69 499.61m-93.37 0a93.37 93.37 0 1 0 186.74 0 93.37 93.37 0 1 0-186.74 0Z" fill="#11420a"/>
<path d="M772.63 293.6m-93.37 0a93.37 93.37 0 1 0 186.74 0 93.37 93.37 0 1 0-186.74 0Z" fill="#11420a"/>
</g>
</svg>